Coordinates
version=1
nRows=22
nColumns=33
inDegrees=yes

Units are S.I. units (second, meters, Newtons, ...)
Angles are in degrees.

endheader
time	ground_thorax_rot_x	ground_thorax_rot_y	ground_thorax_rot_z	ground_thorax_tx	ground_thorax_ty	ground_thorax_tz	clav_prot_r	clav_elev_r	scapula_abduction_r	scapula_elevation_r	scapula_upward_rot_r	scapula_winging_r	shoulder_elv_r	plane_of_elev_r	axial_rot_r	elbow_flexion_r	pro_sup_r	wrist_flex_r	wrist_dev_r	clav_prot_l	clav_elev_l	scapula_abduction_l	scapula_elevation_l	scapula_upward_rot_l	scapula_winging_l	shoulder_elv_l	plane_of_elev_l	axial_rot_l	elbow_flexion_l	pro_sup_l	wrist_flex_l	wrist_dev_l	
7.4400	1.395621	-41.173830	87.075902	23.582657	773.241235	-33.109169	27.226927	-45.000000	40.801353	-45.000000	-45.191608	-2641.760054	-2624.634494	141.916623	-180.000000	1069.198452	-298.882779	20.104499	15.895149	-7.775515	33.340162	-20.652363	-45.000000	-45.000000	-989.941453	-1891.548043	136.705527	-130.197184	1789.630497	46.334607	12.680327	-14.812321	
7.4500	0.936167	-41.172955	86.576452	23.305609	772.634843	-33.162645	26.860885	-45.000000	40.815510	-45.000000	-44.636183	-2641.931528	-2624.608220	141.862316	-180.000000	1069.047703	-298.777026	19.941465	15.755916	-7.754602	33.265928	-20.742159	-45.000000	-45.000000	-990.061284	-1891.608257	136.789034	-130.293442	1789.559813	45.234624	12.566190	-14.596852	
7.4600	0.496390	-41.181645	86.109062	22.998268	772.039078	-33.214483	26.426411	-45.000000	40.833037	-45.000000	-44.110431	-2642.122648	-2624.604112	141.800977	-180.000000	1068.900796	-298.662726	19.793235	15.604809	-7.749839	33.167440	-20.829171	-45.000000	-45.000000	-990.171218	-1891.660379	136.884363	-130.392210	1789.506765	44.194438	12.450680	-14.392096	
7.4700	0.101733	-41.192164	85.693392	22.628052	771.461509	-33.260772	26.207050	-45.000000	40.838106	-45.000000	-43.727460	-2642.247265	-2624.571945	141.759997	-180.000000	1068.780024	-298.520201	19.688560	15.504145	-7.716413	33.113371	-20.877700	-45.000000	-45.000000	-990.237300	-1891.689744	136.939000	-130.561503	1789.475087	43.371207	12.354713	-14.235929	
7.4800	-0.260377	-41.206620	85.319106	22.186985	770.908718	-33.303779	26.092362	-45.000000	40.835937	-45.000000	-43.454795	-2642.335468	-2624.534081	141.731387	-180.000000	1068.685074	-298.347495	19.614376	15.425703	-7.671978	33.084854	-20.909035	-45.000000	-45.000000	-990.272819	-1891.703104	136.978689	-130.764217	1789.462731	42.721263	12.269329	-14.118226	
7.4900	-0.592089	-41.223750	84.983415	21.663352	770.388904	-33.345177	26.060185	-45.000000	40.827724	-45.000000	-43.289805	-2642.391325	-2624.491898	141.715722	-180.000000	1068.615553	-298.141207	19.582357	15.362907	-7.616690	33.060980	-20.929833	-45.000000	-45.000000	-990.278998	-1891.700534	137.007567	-130.987430	1789.465907	42.237194	12.197992	-14.036823	
7.5000	-0.892087	-41.242825	84.695811	21.052654	769.909931	-33.387958	26.072943	-45.000000	40.796069	-45.000000	-43.274573	-2642.413065	-2624.456217	141.708371	-180.000000	1068.580050	-297.897394	19.587241	15.306051	-7.552253	33.044434	-20.952416	-45.000000	-45.000000	-990.263634	-1891.683373	137.043881	-131.208375	1789.476986	41.874255	12.135260	-13.981607	
7.5100	-1.169326	-41.262145	84.440401	20.355091	769.479386	-33.434991	26.085443	-45.000000	40.747910	-45.000000	-43.362828	-2642.419602	-2624.429184	141.701647	-180.000000	1068.568640	-297.615551	19.618212	15.242392	-7.487227	33.018711	-20.983425	-45.000000	-45.000000	-990.239119	-1891.657162	137.096895	-131.415416	1789.490649	41.588164	12.079983	-13.944030	
7.5200	-1.425106	-41.278517	84.212967	19.571622	769.104064	-33.488162	26.109657	-45.000000	40.677936	-45.000000	-43.552513	-2642.399148	-2624.399794	141.699420	-180.000000	1068.579551	-297.290580	19.656419	15.176390	-7.430001	33.013244	-21.020431	-45.000000	-45.000000	-990.206997	-1891.622798	137.159376	-131.605465	1789.497779	41.356152	12.025721	-13.922247	
7.5300	-1.698066	-41.288596	83.947301	18.704423	768.789761	-33.548216	26.127774	-45.000000	40.625833	-45.000000	-43.694767	-2642.386509	-2624.369933	141.700591	-180.000000	1068.596424	-296.926031	19.689070	15.100610	-7.376558	33.010986	-21.066450	-45.000000	-45.000000	-990.183990	-1891.595302	137.224235	-131.770292	1789.504965	41.169728	11.976278	-13.917965	
7.5400	-1.996664	-41.290637	83.634756	17.755751	768.540214	-33.615080	26.137544	-45.000000	40.579573	-45.000000	-43.791635	-2642.376513	-2624.332649	141.698241	-180.000000	1068.613115	-296.517353	19.714223	15.022558	-7.322108	33.019883	-21.120633	-45.000000	-45.000000	-990.178969	-1891.567918	137.288067	-131.885599	1789.509850	41.022494	11.927590	-13.926706	
7.5500	-2.344924	-41.285577	83.234973	16.728324	768.356126	-33.687865	26.131549	-45.000000	40.564805	-45.000000	-43.739189	-2642.393319	-2624.284890	141.688118	-180.000000	1068.613122	-296.067531	19.726911	14.939584	-7.262076	33.025771	-21.186627	-45.000000	-45.000000	-990.197477	-1891.547299	137.343303	-131.945647	1789.515847	40.912094	11.883292	-13.948300	
7.5600	-2.727299	-41.276031	82.776847	15.624349	768.235045	-33.765323	26.109299	-45.000000	40.563141	-45.000000	-43.591798	-2642.420541	-2624.216903	141.671902	-180.000000	1068.594304	-295.576730	19.739286	14.859915	-7.200673	33.033203	-21.261368	-45.000000	-45.000000	-990.226837	-1891.521531	137.380444	-131.943591	1789.516248	40.831679	11.840120	-13.977795	
7.5700	-3.142590	-41.267583	82.261330	14.445699	768.171441	-33.845900	26.070706	-45.000000	40.592540	-45.000000	-43.332831	-2642.468428	-2624.139627	141.653679	-180.000000	1068.553775	-295.055704	19.758572	14.780470	-7.133428	33.027669	-21.347098	-45.000000	-45.000000	-990.254806	-1891.497155	137.396076	-131.892717	1789.512714	40.774638	11.803740	-14.013944	
7.5800	-3.550874	-41.266564	81.755162	13.193408	768.158044	-33.928173	26.024326	-45.000000	40.615506	-45.000000	-43.093956	-2642.512526	-2624.050528	141.630879	-180.000000	1068.500675	-294.511912	19.799577	14.710153	-7.067196	33.015877	-21.434337	-45.000000	-45.000000	-990.265619	-1891.458420	137.393460	-131.808275	1789.502121	40.730037	11.770036	-14.049621	
7.5900	-3.953422	-41.276616	81.252890	11.867351	768.187077	-34.010863	25.975089	-45.000000	40.648072	-45.000000	-42.848933	-2642.565521	-2623.960828	141.606016	-180.000000	1068.436879	-293.963155	19.844230	14.644869	-7.004139	33.004510	-21.523269	-45.000000	-45.000000	-990.259807	-1891.416658	137.380812	-131.717072	1789.489513	40.690859	11.740351	-14.086706	
7.6000	-4.352918	-41.295932	80.750770	10.465677	768.252421	-34.093251	25.922620	-45.000000	40.686825	-45.000000	-42.598167	-2642.625241	-2623.867463	141.582493	-180.000000	1068.365789	-293.426816	19.885695	14.586894	-6.947304	32.998792	-21.611229	-45.000000	-45.000000	-990.244346	-1891.373596	137.362362	-131.625819	1789.477782	40.652980	11.712549	-14.124439	
7.6100	-4.770854	-41.322500	80.216468	8.985555	768.350145	-34.175080	25.864905	-45.000000	40.750771	-45.000000	-42.295399	-2642.703292	-2623.782164	141.563355	-180.000000	1068.285259	-292.922200	19.913099	14.534576	-6.888274	32.993005	-21.704855	-45.000000	-45.000000	-990.230326	-1891.339662	137.345778	-131.531000	1789.470235	40.617074	11.692324	-14.164451	
7.6200	-5.205524	-41.353503	79.653108	7.424157	768.478606	-34.256685	25.803904	-45.000000	40.819223	-45.000000	-41.966021	-2642.790789	-2623.694145	141.541982	-180.000000	1068.197629	-292.462156	19.928991	14.493533	-6.826608	32.987852	-21.799964	-45.000000	-45.000000	-990.225041	-1891.307789	137.333389	-131.427637	1789.465988	40.585361	11.677920	-14.202870	
7.6300	-5.658150	-41.386901	79.058750	5.779729	768.637700	-34.338771	25.739552	-45.000000	40.893316	-45.000000	-41.611947	-2642.883590	-2623.601972	141.520836	-180.000000	1068.101752	-292.058482	19.932602	14.465546	-6.760594	32.981858	-21.898615	-45.000000	-45.000000	-990.227738	-1891.279160	137.325681	-131.314385	1789.462533	40.561198	11.671240	-14.239856	
7.6400	-6.134434	-41.418956	78.425597	4.051919	768.828448	-34.422402	25.670300	-45.000000	40.972150	-45.000000	-41.221424	-2642.980900	-2623.502122	141.503011	-180.000000	1068.001751	-291.718970	19.924330	14.449943	-6.687787	32.976111	-22.001704	-45.000000	-45.000000	-990.240881	-1891.253920	137.322056	-131.192123	1789.463003	40.547970	11.670390	-14.276035	
7.6500	-6.628949	-41.446547	77.762990	2.241954	769.052174	-34.508735	25.596633	-45.000000	41.056730	-45.000000	-40.820421	-2643.073412	-2623.393496	141.491411	-180.000000	1067.892901	-291.444382	19.907323	14.449105	-6.608605	32.969679	-22.109502	-45.000000	-45.000000	-990.260655	-1891.228812	137.319113	-131.055506	1789.462156	40.549582	11.674773	-14.310887	
